<mxfile host="app.diagrams.net" modified="2021-11-17T22:48:10.265Z" agent="5.0 (Windows NT 10.0; Win64; x64) AppleWebKit/537.36 (KHTML, like Gecko) Chrome/96.0.4664.45 Safari/537.36" etag="7nuoMqRUOcFz77vRh9pp" version="15.8.0" type="github">
  <diagram name="Page-1" id="5f0bae14-7c28-e335-631c-24af17079c00">
    <mxGraphModel dx="1038" dy="539" grid="1" gridSize="10" guides="1" tooltips="1" connect="1" arrows="1" fold="1" page="1" pageScale="1" pageWidth="1100" pageHeight="850" background="none" math="0" shadow="0">
      <root>
        <mxCell id="0" />
        <mxCell id="1" parent="0" />
        <mxCell id="7VCS0V2D6dA6tsJ2lYnC-29" style="edgeStyle=orthogonalEdgeStyle;rounded=0;orthogonalLoop=1;jettySize=auto;html=1;exitX=0;exitY=0;exitDx=65;exitDy=75;exitPerimeter=0;endArrow=none;endFill=0;" edge="1" parent="1" source="39150e848f15840c-1">
          <mxGeometry relative="1" as="geometry">
            <mxPoint x="420" y="200" as="targetPoint" />
            <Array as="points">
              <mxPoint x="265" y="200" />
              <mxPoint x="460" y="200" />
            </Array>
          </mxGeometry>
        </mxCell>
        <mxCell id="39150e848f15840c-1" value="administrador" style="verticalAlign=top;align=left;spacingTop=8;spacingLeft=2;spacingRight=12;shape=cube;size=10;direction=south;fontStyle=4;html=1;rounded=0;shadow=0;comic=0;labelBackgroundColor=none;strokeWidth=1;fontFamily=Verdana;fontSize=12;" parent="1" vertex="1">
          <mxGeometry x="200" y="65" width="140" height="65" as="geometry" />
        </mxCell>
        <mxCell id="7VCS0V2D6dA6tsJ2lYnC-21" style="edgeStyle=orthogonalEdgeStyle;rounded=0;orthogonalLoop=1;jettySize=auto;html=1;exitX=0;exitY=0;exitDx=65;exitDy=80;exitPerimeter=0;entryX=0;entryY=0;entryDx=0;entryDy=190;entryPerimeter=0;endArrow=none;endFill=0;" edge="1" parent="1" source="39150e848f15840c-2" target="7VCS0V2D6dA6tsJ2lYnC-13">
          <mxGeometry relative="1" as="geometry">
            <Array as="points">
              <mxPoint x="460" y="130" />
            </Array>
          </mxGeometry>
        </mxCell>
        <mxCell id="39150e848f15840c-2" value="Usuario empleado" style="verticalAlign=top;align=left;spacingTop=8;spacingLeft=2;spacingRight=12;shape=cube;size=10;direction=south;fontStyle=4;html=1;rounded=0;shadow=0;comic=0;labelBackgroundColor=none;strokeWidth=1;fontFamily=Verdana;fontSize=12" parent="1" vertex="1">
          <mxGeometry x="390" y="65" width="150" height="65" as="geometry" />
        </mxCell>
        <mxCell id="7VCS0V2D6dA6tsJ2lYnC-25" style="edgeStyle=orthogonalEdgeStyle;rounded=0;orthogonalLoop=1;jettySize=auto;html=1;exitX=0;exitY=0;exitDx=65;exitDy=65;exitPerimeter=0;entryX=0;entryY=0;entryDx=0;entryDy=190;entryPerimeter=0;endArrow=none;endFill=0;" edge="1" parent="1" source="39150e848f15840c-3" target="7VCS0V2D6dA6tsJ2lYnC-13">
          <mxGeometry relative="1" as="geometry">
            <Array as="points">
              <mxPoint x="645" y="200" />
              <mxPoint x="420" y="200" />
            </Array>
          </mxGeometry>
        </mxCell>
        <mxCell id="39150e848f15840c-3" value="Usuario NÃ³mina" style="verticalAlign=top;align=left;spacingTop=8;spacingLeft=2;spacingRight=12;shape=cube;size=10;direction=south;fontStyle=4;html=1;rounded=0;shadow=0;comic=0;labelBackgroundColor=none;strokeWidth=1;fontFamily=Verdana;fontSize=12" parent="1" vertex="1">
          <mxGeometry x="590" y="65" width="120" height="65" as="geometry" />
        </mxCell>
        <mxCell id="7VCS0V2D6dA6tsJ2lYnC-17" value="" style="group;fillColor=#e1d5e7;strokeColor=#9673a6;" vertex="1" connectable="0" parent="1">
          <mxGeometry x="280" y="260" width="330" height="190" as="geometry" />
        </mxCell>
        <mxCell id="7VCS0V2D6dA6tsJ2lYnC-13" value="Servidor Web" style="verticalAlign=top;align=left;spacingTop=8;spacingLeft=2;spacingRight=12;shape=cube;size=10;direction=south;fontStyle=4;html=1;" vertex="1" parent="7VCS0V2D6dA6tsJ2lYnC-17">
          <mxGeometry width="330" height="190" as="geometry" />
        </mxCell>
        <mxCell id="39150e848f15840c-7" value="JSON" style="shape=component;align=left;spacingLeft=36;rounded=0;shadow=0;comic=0;labelBackgroundColor=none;strokeWidth=1;fontFamily=Verdana;fontSize=12;html=1;" parent="7VCS0V2D6dA6tsJ2lYnC-17" vertex="1">
          <mxGeometry x="177.69230769230768" y="57.82608695652174" width="101.53846153846153" height="49.56521739130435" as="geometry" />
        </mxCell>
        <mxCell id="39150e848f15840c-5" value="Express" style="shape=component;align=left;spacingLeft=36;rounded=0;shadow=0;comic=0;labelBackgroundColor=none;strokeWidth=1;fontFamily=Verdana;fontSize=12;html=1;" parent="7VCS0V2D6dA6tsJ2lYnC-17" vertex="1">
          <mxGeometry x="42.30769230769231" y="61.95652173913044" width="101.53846153846153" height="49.56521739130435" as="geometry" />
        </mxCell>
        <mxCell id="7VCS0V2D6dA6tsJ2lYnC-14" value="React&lt;br&gt;Bootstrap" style="shape=component;align=left;spacingLeft=36;rounded=0;shadow=0;comic=0;labelBackgroundColor=none;strokeWidth=1;fontFamily=Verdana;fontSize=12;html=1;" vertex="1" parent="7VCS0V2D6dA6tsJ2lYnC-17">
          <mxGeometry x="42.30769230769231" y="123.91304347826087" width="101.53846153846153" height="49.56521739130435" as="geometry" />
        </mxCell>
        <mxCell id="7VCS0V2D6dA6tsJ2lYnC-30" value="HTTP" style="text;html=1;align=center;verticalAlign=middle;resizable=0;points=[];autosize=1;strokeColor=none;fillColor=none;" vertex="1" parent="1">
          <mxGeometry x="420" y="220" width="50" height="20" as="geometry" />
        </mxCell>
        <mxCell id="7VCS0V2D6dA6tsJ2lYnC-31" value="Mongo DB" style="shape=cylinder3;whiteSpace=wrap;html=1;boundedLbl=1;backgroundOutline=1;size=15;gradientColor=none;" vertex="1" parent="1">
          <mxGeometry x="410" y="520" width="90" height="100" as="geometry" />
        </mxCell>
        <mxCell id="7VCS0V2D6dA6tsJ2lYnC-32" style="edgeStyle=orthogonalEdgeStyle;rounded=0;orthogonalLoop=1;jettySize=auto;html=1;endArrow=none;endFill=0;exitX=1.012;exitY=0.468;exitDx=0;exitDy=0;exitPerimeter=0;" edge="1" parent="1" source="7VCS0V2D6dA6tsJ2lYnC-13">
          <mxGeometry relative="1" as="geometry">
            <mxPoint x="455" y="480" as="sourcePoint" />
            <mxPoint x="456" y="520" as="targetPoint" />
            <Array as="points">
              <mxPoint x="456" y="450" />
            </Array>
          </mxGeometry>
        </mxCell>
      </root>
    </mxGraphModel>
  </diagram>
</mxfile>
